# xmcd CD database file
#
# Track frame offsets:
#	150
#	15225
#	33075
#	50699
#	69020
#	86344
#	104437
#	119661
#	146360
#	163460
#	184459
#	200358
#	209207
#
# Disc length: 2961 seconds
#
# Revision: 0
# Processed by: cddbd v1.5PL3 Copyright (c) Steve Scherf et al.
# Submitted via: CDex 1.51
#
DISCID=b90b8f0d
DTITLE=Gamba Blues Band - BLUES, STAV MYSLI
DYEAR=2002
DGENRE=Blues
TTITLE0=Love Me Two Times
TTITLE1=Boom Boom
TTITLE2=Bozsky klid
TTITLE3=Sick and Tired
TTITLE4=Sweet Home Chicago
TTITLE5=Muzy
TTITLE6=Hey Hey
TTITLE7=Rock Me Baby
TTITLE8=Tresky plesky Blues
TTITLE9=Red House
TTITLE10=San Francisco Bay Blues
TTITLE11=Zvyk je zelezna kosile
TTITLE12=Outro - Guitar Man
EXTD=YEAR: 2002
EXTT0=
EXTT1=
EXTT2=
EXTT3=
EXTT4=
EXTT5=
EXTT6=
EXTT7=
EXTT8=
EXTT9=
EXTT10=
EXTT11=
EXTT12=
PLAYORDER=
